<?xml version="1.0" encoding="utf-8"?>
<svg viewBox="40 40 120 120" xmlns="http://www.w3.org/2000/svg">
  <path d="M 160 100 C 160 133.137 133.137 160 100 160 C 66.863 160 40 133.137 40 100 C 40 66.863 66.863 40 100 40 C 133.137 40 160 66.863 160 100 Z M 84.321 125.027 L 97.258 107.062 C 97.751 106.359 98.571 105.07 99.719 103.195 C 100.492 104.437 101.242 105.585 101.969 106.64 L 114.942 125.027 L 123.379 125.027 L 103.868 97.781 L 121.973 73.488 L 114.555 73.488 L 104.184 87.164 C 102.614 89.203 101.255 91.16 100.106 93.035 C 99.285 91.558 97.903 89.449 95.958 86.707 L 86.606 73.488 L 78.485 73.488 L 96.063 98.168 L 76.129 125.027 Z" style="fill: rgb(255, 18, 18);"/>
</svg>