<?xml version="1.0" encoding="utf-8"?>
<svg viewBox="40 40 120 120" xmlns="http://www.w3.org/2000/svg">
  <path d="M 160 100 C 160 133.137 133.137 160 100 160 C 66.863 160 40 133.137 40 100 C 40 66.863 66.863 40 100 40 C 133.137 40 160 66.863 160 100 Z M 102.654 112.251 C 102.701 109.72 102.876 107.891 103.181 106.766 C 103.486 105.641 103.954 104.645 104.587 103.778 C 105.22 102.911 106.568 101.563 108.63 99.735 C 111.701 97.016 113.763 94.708 114.818 92.809 C 115.873 90.911 116.4 88.837 116.4 86.587 C 116.4 82.696 114.9 79.38 111.9 76.637 C 108.9 73.895 104.88 72.524 99.841 72.524 C 95.084 72.524 91.258 73.801 88.363 76.356 C 85.468 78.911 83.728 82.59 83.142 87.395 L 89.646 88.169 C 90.209 84.583 91.392 81.946 93.197 80.258 C 95.002 78.571 97.252 77.727 99.947 77.727 C 102.736 77.727 105.091 78.659 107.013 80.522 C 108.935 82.385 109.896 84.547 109.896 87.008 C 109.896 88.367 109.568 89.621 108.912 90.77 C 108.255 91.919 106.831 93.46 104.64 95.393 C 102.449 97.327 100.931 98.798 100.087 99.805 C 98.939 101.188 98.107 102.559 97.591 103.919 C 96.888 105.724 96.537 107.868 96.537 110.352 C 96.537 110.774 96.549 111.407 96.572 112.251 Z M 103.392 124.942 L 103.392 117.735 L 96.185 117.735 L 96.185 124.942 Z" style="fill: rgb(252, 136, 3);"/>
</svg>